<svg id="svg" version="1.1" width="3066.0" height="748.0" xmlns="http://www.w3.org/2000/svg"><path d="M262.5 63.0 C 234.524 69.358,222.322 73.547,195.5 86.0 C 147.679 108.202,109.199 147.465,97.0 186.5 C 93.516 197.65,93.27 218.503,96.5 229.0 C 104.625 255.407,131.507 273.819,169.5 279.0 L 180.5 280.5 181.0 288.5 C 181.689 299.528,183.977 307.107,189.0 315.0 C 200.591 333.215,220.34 346.187,240.0 348.5 C 253.53 350.092,287.94 349.793,297.5 348.0 C 326.914 342.485,370.236 324.009,399.5 304.5 C 402.5 302.5,402.5 302.5,390.0 315.0 C 377.5 327.5,377.5 327.5,365.5 340.5 C 317.323 392.692,318.237 391.718,297.5 413.0 L 278.5 432.5 251.5 441.5 C 143.463 477.512,96.324 497.676,78.5 515.5 C 63.667 530.333,60.5 536.843,60.5 552.5 C 60.5 565.462,61.88 568.12,70.5 571.77 C 75.374 573.834,99.069 573.072,110.0 570.5 C 128.452 566.158,149.648 557.503,170.0 546.0 C 219.098 518.249,226.037 513.253,257.5 483.0 L 270.5 470.5 292.0 448.0 L 313.5 425.5 340.0 416.0 C 354.575 410.775,378.425 402.225,393.0 397.0 C 407.575 391.775,425.125 385.475,432.0 383.0 L 444.5 378.5 441.0 383.0 C 412.892 419.139,392.171 455.227,381.0 487.5 C 374.16 507.261,373.5 510.955,373.5 529.5 C 373.5 553.56,375.242 558.242,389.5 572.5 C 398.809 581.809,405.721 584.278,431.5 587.5 L 439.5 588.5 440.5 596.0 C 442.953 614.395,450.33 631.208,462.0 645.0 C 480.911 667.349,494.21 672.5,533.0 672.5 C 556.67 672.5,563.947 671.474,572.0 667.0 C 576.5 664.5,576.5 664.5,574.5 663.5 C 572.738 662.619,571.429 662.798,563.5 665.0 C 546.561 669.705,512.88 668.458,496.0 662.5 C 468.516 652.8,448.601 625.716,446.0 594.5 C 445.5 588.5,445.5 588.5,457.0 588.0 C 486.999 586.696,516.201 576.123,544.0 556.5 C 556.923 547.378,575.118 529.183,585.0 515.5 C 600.723 493.73,606.5 478.817,606.5 460.0 C 606.5 448.5,606.5 448.5,603.5 442.0 C 599.497 433.326,595.258 429.208,586.0 425.0 C 578.296 421.498,559.577 421.245,549.0 424.5 C 532.297 429.639,514.635 438.956,503.5 448.5 C 479.47 469.097,465.733 485.611,456.5 505.0 C 445.434 528.238,440.82 545.856,440.0 568.0 C 439.446 582.945,440.022 582.587,421.5 579.5 C 406.827 577.054,394.812 567.206,391.0 554.5 C 388.348 545.659,388.846 524.985,392.0 513.0 C 399.747 483.563,428.033 434.276,458.0 398.0 C 464.667 389.93,470.333 382.921,477.0 374.5 C 486.5 362.5,486.5 362.5,509.5 353.5 C 608.078 314.926,700.543 262.927,746.0 220.5 L 753.5 213.5 759.5 206.5 C 771.432 192.58,777.111 175.315,772.0 168.5 L 770.5 166.5 768.5 165.026 C 765.616 162.901,741.785 162.884,730.5 165.0 C 695.925 171.483,648.626 193.407,614.0 219.0 C 607.675 223.675,597.1 231.325,590.5 236.0 C 574.682 247.204,563.111 256.613,545.0 273.0 C 535.118 281.941,533.824 283.088,523.0 292.5 L 511.5 302.5 501.0 313.5 C 480.285 335.201,472.602 343.845,461.0 358.5 C 451.5 370.5,451.5 370.5,424.5 380.0 C 397.954 389.34,355.13 404.634,333.5 412.5 C 322.5 416.5,322.5 416.5,338.0 400.0 C 353.5 383.5,353.5 383.5,383.5 350.0 L 413.5 316.5 441.5 289.0 C 512.413 219.353,530.023 205.239,572.5 184.0 C 587.5 176.5,587.5 176.5,587.5 175.5 C 587.5 173.496,581.326 174.182,574.0 177.0 C 550.206 186.152,529.408 197.567,507.5 213.5 C 501.45 217.9,491.775 224.875,486.0 229.0 C 473.501 237.928,465.843 244.246,446.0 262.0 C 423.639 282.007,421.546 283.762,412.0 290.5 C 390.534 305.652,374.998 314.715,358.0 322.0 C 316.8 339.657,300.982 343.5,269.5 343.5 C 240.29 343.5,233.695 341.963,218.0 331.5 C 205.836 323.391,198.901 309.521,198.0 291.5 L 197.5 281.5 219.5 281.0 C 266.649 279.928,302.699 272.153,347.0 253.5 C 384.694 237.629,416.33 209.508,428.0 181.5 C 431.489 173.127,431.715 160.234,428.5 153.0 C 424.933 144.973,416.977 138.128,407.0 134.5 C 390.597 128.535,390.356 128.5,366.0 128.5 C 332.691 128.5,314.9 132.32,284.5 146.0 C 263.476 155.461,253.715 161.936,232.5 180.5 L 224.5 187.5 218.0 195.0 C 198.234 217.807,185.13 243.461,182.5 264.5 L 181.5 272.5 176.0 272.0 C 138.807 268.619,112.383 251.619,104.5 226.0 C 101.281 215.539,101.521 195.633,105.0 184.5 C 110.272 167.629,119.589 153.072,137.0 134.5 L 144.5 126.5 153.0 119.0 C 181.021 94.275,227.204 73.971,269.0 68.0 C 274.775 67.175,279.725 66.275,280.0 66.0 L 280.5 65.5 280.0 63.0 C 279.5 60.5,279.5 60.5,276.5 60.5 C 274.85 60.5,268.55 61.625,262.5 63.0 M1809.0 125.0 C 1793.751 127.178,1767.68 134.146,1751.0 140.5 C 1700.989 159.552,1664.778 182.222,1632.0 215.0 C 1617.5 229.5,1617.5 229.5,1617.5 231.0 C 1617.5 232.5,1617.5 232.5,1619.0 233.0 C 1620.794 233.598,1621.85 232.628,1637.5 216.0 C 1660.417 191.65,1690.235 172.702,1739.0 151.5 C 1776.986 134.984,1798.06 130.263,1830.5 131.0 C 1870.71 131.914,1885.952 136.722,1905.0 154.5 C 1912.5 161.5,1912.5 161.5,1916.5 170.0 C 1918.819 174.928,1920.71 179.551,1921.0 181.0 C 1921.594 183.968,1923.164 183.475,1903.5 186.5 C 1880.574 190.027,1857.224 197.166,1825.0 210.5 C 1791.771 224.25,1757.192 246.779,1726.0 275.0 L 1715.5 284.5 1705.5 295.5 C 1684.3 318.82,1682.408 321.097,1676.0 331.0 C 1657.491 359.605,1651.5 375.377,1651.5 395.5 C 1651.5 415.433,1655.452 421.817,1671.0 427.0 C 1677.603 429.201,1709.762 428.324,1726.0 425.5 C 1777.182 416.599,1826.279 390.721,1864.5 352.5 C 1890.876 326.124,1903.456 308.992,1917.0 281.0 C 1931.692 250.636,1935.5 236.125,1935.5 210.5 C 1935.5 201.15,1935.275 192.6,1935.0 191.5 L 1934.5 189.5 1938.0 188.5 L 1941.5 187.5 1961.5 188.5 C 2016.329 191.241,2041.047 201.359,2058.0 228.0 C 2064.208 237.755,2065.5 243.355,2065.5 260.5 C 2065.5 276.829,2064.345 283.492,2059.0 298.0 C 2047.387 329.52,2027.951 359.077,1998.5 390.0 C 1943.071 448.201,1915.597 470.477,1850.5 510.0 C 1837.977 517.603,1834.865 519.344,1821.0 526.5 C 1799.124 537.791,1801.045 537.791,1754.0 526.5 C 1740.517 523.264,1721.904 519.685,1702.0 516.5 C 1695.125 515.4,1683.875 513.6,1677.0 512.5 C 1660.502 509.86,1613.438 509.562,1598.0 512.0 C 1564.607 517.273,1542.316 529.432,1532.0 548.0 C 1528.47 554.354,1528.222 566.263,1531.5 572.0 C 1537.158 581.902,1543.099 586.445,1557.0 591.5 C 1567.305 595.247,1570.576 595.517,1599.5 595.0 C 1639.034 594.294,1668.076 590.732,1705.5 582.0 C 1727.661 576.829,1764.673 565.293,1782.5 558.0 C 1796.515 552.267,1793.669 552.006,1837.0 563.0 C 1855.425 567.675,1871.625 571.5,1873.0 571.5 C 1875.5 571.5,1875.5 571.5,1873.5 575.5 C 1869.69 583.12,1868.5 590.26,1868.5 605.5 C 1868.5 631.906,1874.006 642.395,1900.0 665.5 C 1910.263 674.622,1927.109 681.429,1949.5 685.5 C 1970.961 689.402,2008.934 687.307,2022.0 681.5 L 2026.5 679.5 2025.5 677.5 C 2024.137 674.773,2022.966 674.815,2011.5 678.0 C 2002.827 680.409,2001.701 680.518,1980.5 681.0 C 1950.428 681.683,1945.311 680.643,1919.0 668.5 C 1902.304 660.794,1886.409 642.807,1881.0 625.5 C 1876.924 612.456,1877.435 587.651,1882.0 577.0 C 1883.712 573.004,1881.596 572.912,1905.0 578.0 C 1933.296 584.151,1961.481 586.5,2007.0 586.5 C 2035.0 586.5,2038.279 586.336,2047.0 584.5 C 2068.936 579.882,2089.636 567.255,2097.0 554.0 C 2100.487 547.724,2100.694 538.187,2097.5 531.0 C 2091.85 518.287,2075.966 509.406,2051.0 505.0 C 2037.771 502.666,1993.461 502.033,1981.0 504.0 C 1950.657 508.791,1922.475 521.021,1901.5 538.5 L 1895.5 543.5 1891.0 549.0 C 1884.453 557.001,1886.621 557.001,1854.0 549.0 C 1839.425 545.425,1826.825 542.05,1826.0 541.5 C 1824.5 540.5,1824.5 540.5,1839.0 533.5 C 1871.251 517.931,1892.534 504.81,1942.0 470.0 C 1955.5 460.5,1955.5 460.5,1967.0 450.0 L 1978.5 439.5 1999.5 418.5 L 2020.5 397.5 2029.0 388.5 C 2038.322 378.629,2038.758 378.046,2060.0 347.0 C 2068.366 334.772,2074.01 323.347,2080.5 305.5 C 2086.484 289.043,2087.5 283.24,2087.5 265.5 C 2087.5 244.219,2084.523 235.084,2073.0 221.0 L 2068.5 215.5 2062.0 210.0 C 2047.179 197.459,2032.89 191.241,2008.0 186.5 C 1984.663 182.055,1977.733 181.472,1954.5 182.0 C 1932.5 182.5,1932.5 182.5,1930.0 175.0 C 1923.105 154.316,1905.001 138.059,1881.0 131.0 C 1860.615 125.004,1827.997 122.286,1809.0 125.0 M392.0 139.0 C 404.983 141.996,415.668 149.379,419.5 158.0 C 427.821 176.722,413.355 202.273,381.0 226.0 C 341.376 255.058,282.769 272.585,220.5 274.0 C 198.5 274.5,198.5 274.5,199.0 271.0 C 202.386 247.299,224.846 210.229,250.5 186.0 C 278.579 159.481,312.361 142.234,345.5 137.5 C 355.11 136.127,383.523 137.044,392.0 139.0 M764.0 173.0 C 765.333 174.333,765.5 175.056,765.5 179.5 C 765.5 186.765,761.884 193.596,752.0 205.0 L 745.5 212.5 736.0 221.5 C 720.944 235.764,706.916 245.621,662.0 273.5 C 626.18 295.733,559.955 327.718,500.5 351.5 C 495.5 353.5,495.5 353.5,500.0 348.5 L 504.5 343.5 528.0 320.0 L 551.5 296.5 565.0 284.0 C 599.865 251.718,622.976 233.849,673.0 200.5 C 691.797 187.968,719.413 175.741,738.5 171.5 C 749.038 169.158,760.853 169.853,764.0 173.0 M1922.5 191.5 L 1922.5 193.5 1922.5 205.0 C 1922.5 223.815,1917.388 240.724,1903.0 269.5 C 1893.868 287.764,1875.113 314.557,1861.0 329.5 L 1852.5 338.5 1840.0 350.5 C 1804.042 385.02,1763.451 408.845,1725.0 418.0 C 1715.734 420.206,1712.62 420.559,1698.5 421.0 C 1675.242 421.727,1670.847 420.055,1663.0 407.5 C 1658.953 401.024,1659.181 385.236,1663.5 373.0 C 1669.2 356.85,1683.355 333.331,1696.0 319.0 C 1700.444 313.963,1707.167 306.222,1712.5 300.0 L 1721.5 289.5 1732.0 280.5 C 1773.076 245.292,1793.902 232.099,1842.5 210.5 C 1861.378 202.11,1908.214 189.5,1920.5 189.5 L 1922.5 189.5 1922.5 191.5 M2982.0 280.0 C 2968.111 285.342,2943.954 300.276,2927.0 314.0 C 2919.364 320.182,2912.955 325.227,2903.5 332.5 C 2890.5 342.5,2890.5 342.5,2878.0 354.0 C 2865.719 365.298,2865.254 365.719,2851.5 378.0 C 2837.5 390.5,2837.5 390.5,2820.5 406.5 L 2803.5 422.5 2768.0 458.0 L 2732.5 493.5 2715.5 511.0 L 2698.5 528.5 2686.0 537.0 C 2669.586 548.162,2635.412 565.412,2633.5 563.5 C 2632.5 562.5,2632.5 562.5,2637.0 557.0 C 2647.829 543.765,2653.154 532.354,2658.0 512.0 C 2660.379 502.006,2661.211 497.171,2663.5 480.0 C 2664.417 473.125,2664.667 472.25,2666.5 469.5 C 2668.233 466.9,2668.5 466.167,2668.5 464.0 L 2668.5 461.5 2666.0 461.5 C 2663.5 461.5,2663.5 461.5,2660.0 465.5 C 2650.272 476.618,2634.694 488.704,2602.0 510.5 C 2539.684 552.044,2516.823 562.82,2488.5 564.0 C 2470.778 564.738,2467.5 562.631,2467.5 550.5 C 2467.5 542.686,2469.528 537.472,2474.5 532.5 C 2477.5 529.5,2477.5 529.5,2489.5 527.0 C 2514.973 521.693,2531.876 515.337,2552.0 503.5 C 2571.297 492.149,2582.872 475.686,2574.5 471.5 C 2570.78 469.64,2548.344 469.305,2541.0 471.0 C 2509.358 478.302,2474.879 499.932,2460.5 521.5 C 2456.5 527.5,2456.5 527.5,2445.5 534.0 C 2439.45 537.575,2429.775 543.425,2424.0 547.0 C 2402.299 560.434,2373.26 572.049,2359.0 573.0 L 2351.5 573.5 2351.0 573.0 C 2350.725 572.725,2350.5 570.925,2350.5 569.0 C 2350.5 563.49,2351.404 562.547,2373.5 545.0 C 2401.126 523.062,2409.5 513.408,2409.5 503.5 C 2409.5 493.372,2404.969 490.135,2392.0 491.0 C 2375.761 492.083,2371.5 491.771,2371.5 489.5 C 2371.5 487.5,2371.5 487.5,2375.5 484.0 C 2384.724 475.929,2387.418 472.912,2388.0 470.0 C 2388.65 466.748,2388.083 466.5,2380.0 466.5 C 2373.5 466.5,2373.5 466.5,2369.0 469.5 C 2360.853 474.931,2353.139 483.063,2350.5 489.0 C 2348.5 493.5,2348.5 493.5,2325.0 510.0 C 2273.383 546.242,2241.189 564.075,2223.0 566.5 L 2215.5 567.5 2214.5 566.5 C 2211.894 563.894,2213.104 558.044,2217.5 552.0 C 2226.059 540.232,2245.326 519.904,2272.0 494.5 C 2282.5 484.5,2282.5 484.5,2282.5 482.5 C 2282.5 479.319,2281.249 478.568,2275.0 478.0 C 2269.612 477.51,2269.449 477.541,2267.0 479.5 C 2251.306 492.055,2252.435 491.265,2227.0 507.5 C 2167.473 545.496,2140.721 560.5,2132.5 560.5 C 2128.5 560.5,2128.5 560.5,2128.5 557.5 C 2128.5 551.125,2139.551 537.974,2178.5 498.0 C 2200.344 475.581,2200.411 475.5,2197.0 475.5 C 2196.175 475.5,2192.125 475.275,2188.0 475.0 C 2178.689 474.379,2178.422 474.578,2149.0 504.0 C 2121.854 531.146,2115.5 541.104,2115.5 556.5 C 2115.5 564.5,2115.5 564.5,2118.0 567.0 C 2120.5 569.5,2120.5 569.5,2126.5 569.0 C 2136.785 568.143,2158.603 558.103,2183.0 543.0 C 2188.775 539.425,2198.225 533.575,2204.0 530.0 C 2209.775 526.425,2215.85 522.6,2217.5 521.5 C 2220.5 519.5,2220.5 519.5,2216.0 524.5 C 2202.605 539.383,2196.5 551.281,2196.5 562.5 C 2196.5 566.5,2196.929 570.357,2197.5 571.5 L 2198.5 573.5 2200.5 574.5 C 2204.655 576.578,2221.234 574.947,2231.0 571.5 C 2252.254 563.998,2284.631 546.611,2312.0 528.0 C 2349.422 502.553,2351.354 501.55,2364.0 501.0 C 2401.553 499.367,2399.544 499.367,2399.0 501.0 C 2397.576 505.271,2392.491 509.895,2382.5 516.0 C 2358.6 530.605,2347.272 540.585,2340.5 553.0 C 2337.5 558.5,2337.5 558.5,2337.5 566.5 C 2337.5 579.229,2339.383 580.769,2354.0 580.0 C 2369.833 579.167,2377.232 576.541,2416.0 558.0 C 2426.824 552.824,2428.118 552.118,2438.0 546.0 C 2452.866 536.797,2451.5 536.595,2451.5 548.0 C 2451.5 559.66,2452.503 562.836,2457.5 567.0 C 2463.443 571.952,2466.533 572.57,2482.5 572.0 C 2498.676 571.422,2509.265 569.172,2522.5 563.5 C 2526.35 561.85,2532.875 559.15,2537.0 557.5 C 2542.833 555.167,2546.056 553.611,2551.5 550.5 C 2561.265 544.92,2560.744 545.094,2559.0 548.0 C 2556.502 552.163,2556.8 565.275,2559.5 570.0 C 2562.148 574.633,2565.913 577.53,2572.5 580.0 C 2578.883 582.394,2599.217 581.364,2612.0 578.0 C 2629.187 573.477,2652.54 563.665,2671.5 553.0 C 2680.592 547.886,2680.882 546.958,2669.0 561.0 C 2663.5 567.5,2663.5 567.5,2663.0 570.5 C 2662.336 574.486,2662.989 574.716,2671.5 573.5 C 2678.5 572.5,2678.5 572.5,2685.5 566.5 C 2709.801 545.671,2734.52 529.684,2777.5 507.0 C 2805.618 492.16,2815.885 487.647,2823.0 487.0 L 2828.5 486.5 2829.5 487.0 C 2830.389 487.444,2830.278 487.889,2828.5 491.0 L 2826.5 494.5 2817.5 502.5 C 2812.55 506.9,2804.45 514.1,2799.5 518.5 C 2772.031 542.917,2766.5 550.375,2766.5 563.0 C 2766.5 570.5,2766.5 570.5,2769.0 573.0 C 2771.5 575.5,2771.5 575.5,2781.0 575.0 C 2797.099 574.153,2814.316 567.211,2843.0 550.0 C 2847.125 547.525,2850.95 545.275,2851.5 545.0 C 2852.342 544.579,2851.947 545.526,2849.0 551.0 C 2845.5 557.5,2845.5 557.5,2845.5 563.5 C 2845.5 566.833,2845.944 570.389,2846.5 571.5 L 2847.5 573.5 2849.5 574.5 C 2853.655 576.578,2870.234 574.947,2880.0 571.5 C 2895.999 565.853,2919.466 554.021,2939.5 541.5 C 2955.5 531.5,2955.5 531.5,2956.0 528.0 C 2956.743 522.799,2957.098 522.66,2935.5 536.0 C 2900.378 557.693,2884.892 565.186,2873.5 566.0 C 2864.489 566.644,2863.772 565.926,2866.0 558.5 C 2868.903 548.823,2878.344 537.656,2912.5 503.5 C 2931.5 484.5,2931.5 484.5,2931.5 482.5 C 2931.5 479.319,2930.249 478.568,2924.0 478.0 C 2917.288 477.39,2919.622 475.868,2901.0 493.0 C 2888.5 504.5,2888.5 504.5,2876.5 516.5 C 2864.5 528.5,2864.5 528.5,2848.5 538.0 C 2812.132 559.593,2800.422 565.198,2790.0 566.0 L 2783.5 566.5 2782.5 566.0 C 2781.738 565.619,2781.5 564.667,2781.5 562.0 C 2781.5 557.071,2788.534 549.273,2804.5 536.5 C 2826.689 518.749,2840.411 503.402,2842.5 494.0 L 2843.5 489.5 2842.5 486.5 C 2840.922 481.766,2838.581 480.639,2829.0 480.0 C 2821.5 479.5,2821.5 479.5,2813.0 483.0 C 2787.49 493.504,2766.2 505.08,2733.0 526.5 C 2717.5 536.5,2717.5 536.5,2716.5 536.0 C 2714.775 535.138,2722.986 524.014,2732.0 515.0 C 2738.5 508.5,2738.5 508.5,2753.0 499.5 C 2791.094 475.856,2824.691 452.726,2852.5 431.0 C 2861.3 424.125,2875.925 412.875,2885.0 406.0 C 2907.193 389.187,2923.154 375.844,2949.0 352.5 L 2964.5 338.5 2978.5 323.5 C 2999.893 300.579,3006.701 290.303,3005.0 283.5 L 3004.5 281.5 3001.5 280.0 C 2995.668 277.084,2989.582 277.084,2982.0 280.0 M2993.5 288.0 C 2997.08 293.37,2974.95 318.579,2936.0 353.5 C 2917.798 369.819,2878.024 401.679,2838.0 432.0 C 2828.925 438.875,2814.075 450.125,2805.0 457.0 C 2783.866 473.011,2752.986 493.986,2752.0 493.0 L 2751.5 492.5 2781.0 463.0 L 2810.5 433.5 2834.0 411.0 C 2909.8 338.426,2953.89 301.305,2979.5 288.5 C 2986.655 284.922,2991.337 284.755,2993.5 288.0 M2959.5 428.5 C 2948.627 435.748,2942.466 445.788,2946.0 450.5 C 2949.378 455.004,2965.112 448.583,2970.5 440.5 C 2972.584 437.373,2973.355 431.21,2972.0 428.5 C 2970.859 426.218,2962.923 426.218,2959.5 428.5 M576.0 431.0 C 584.467 434.629,587.5 441.223,587.5 456.0 C 587.5 493.004,552.554 542.326,508.5 567.5 C 493.184 576.252,475.648 581.189,457.0 582.0 L 445.5 582.5 446.0 570.5 C 447.128 543.42,458.259 512.051,473.5 493.0 C 495.147 465.941,498.824 462.135,516.0 449.0 C 536.406 433.396,562.985 425.422,576.0 431.0 M254.0 456.0 C 185.256 524.744,145.335 554.011,106.0 564.5 C 96.155 567.125,80.547 567.377,75.0 565.0 C 68.493 562.211,66.5 558.46,66.5 549.0 C 66.5 541.5,66.5 541.5,69.5 536.0 C 81.682 513.666,107.193 499.549,196.0 466.0 C 224.975 455.054,266.068 440.5,268.0 440.5 C 269.5 440.5,269.5 440.5,254.0 456.0 M1167.5 463.5 C 1160.083 467.95,1156.467 472.083,1153.5 479.5 C 1151.5 484.5,1151.5 484.5,1123.5 504.0 C 1079.916 534.353,1050.138 552.533,1028.5 562.0 C 1020.5 565.5,1020.5 565.5,1014.0 565.5 C 1007.5 565.5,1007.5 565.5,1007.5 563.5 C 1007.5 559.648,1018.803 548.345,1031.0 540.0 C 1048.162 528.258,1056.833 519.215,1066.0 503.5 C 1069.5 497.5,1069.5 497.5,1069.5 491.0 C 1069.5 482.983,1067.766 480.433,1061.0 478.5 L 1057.5 477.5 1048.5 478.5 C 1029.931 480.563,1005.193 491.266,978.0 509.0 C 966.5 516.5,966.5 516.5,968.5 513.5 C 969.6 511.85,971.85 508.475,973.5 506.0 C 979.399 497.151,981.933 487.798,980.0 482.0 L 979.5 480.5 977.0 479.0 C 974.908 477.745,973.111 477.5,966.0 477.5 C 957.5 477.5,957.5 477.5,946.5 482.5 C 931.68 489.237,906.966 503.334,875.5 523.0 L 871.5 525.5 875.5 521.0 C 888.143 506.777,892.5 498.447,892.5 488.5 C 892.5 482.5,892.5 482.5,890.0 479.5 C 887.5 476.5,887.5 476.5,880.0 476.5 C 872.5 476.5,872.5 476.5,862.0 482.0 C 847.096 489.807,801.371 520.629,794.5 527.5 C 786.82 535.18,744.767 558.935,729.0 564.5 C 716.269 568.993,709.697 569.486,709.0 566.0 C 707.899 560.496,720.633 544.367,746.5 518.5 C 758.5 506.5,758.5 506.5,770.0 493.5 C 787.783 473.397,787.757 473.5,775.0 473.5 C 767.5 473.5,767.5 473.5,763.5 476.5 C 759.5 479.5,759.5 479.5,755.5 478.0 C 743.648 473.555,743.26 473.5,724.0 473.5 C 695.819 473.5,682.692 476.464,662.0 487.5 C 641.191 498.598,628.552 510.276,616.0 530.0 C 609.013 540.979,607.5 545.786,607.5 557.0 C 607.5 571.4,607.6 571.5,622.0 571.5 C 635.487 571.5,656.389 564.194,673.5 553.5 C 677.9 550.75,684.875 546.475,689.0 544.0 C 696.5 539.5,696.5 539.5,702.5 534.5 C 708.5 529.5,708.5 529.5,709.0 530.0 C 709.471 530.471,709.294 530.794,706.0 535.5 C 700.605 543.207,697.799 549.705,696.5 557.5 L 695.5 563.5 696.5 567.5 C 697.825 572.802,699.512 573.5,711.0 573.5 C 719.476 573.5,719.528 573.49,729.5 570.0 C 752.513 561.946,793.194 539.806,803.0 530.0 C 806.5 526.5,806.5 526.5,820.5 518.0 C 834.5 509.5,834.5 509.5,847.0 500.5 C 865.704 487.033,871.939 483.5,877.0 483.5 L 880.5 483.5 880.5 486.5 C 880.5 492.611,875.695 498.789,845.5 531.5 L 833.5 544.5 821.0 556.0 L 808.5 567.5 808.0 569.0 C 807.304 571.088,809.198 571.5,819.5 571.5 C 829.202 571.5,827.135 572.592,846.0 557.5 C 871.229 537.317,881.0 530.107,897.5 519.5 C 905.2 514.55,916.225 507.35,922.0 503.5 C 938.293 492.638,953.362 485.5,960.0 485.5 C 964.5 485.5,964.5 485.5,964.5 488.5 C 964.5 494.522,955.587 505.1,919.0 542.5 C 891.434 570.679,893.823 567.823,896.0 570.0 C 898.589 572.589,912.576 572.239,916.0 569.5 C 920.784 565.673,935.14 552.728,946.5 542.0 C 962.837 526.571,988.714 508.767,1009.0 499.0 C 1030.465 488.665,1040.077 485.5,1050.0 485.5 C 1057.5 485.5,1057.5 485.5,1057.5 487.5 C 1057.5 489.5,1057.5 489.5,1054.5 493.5 L 1051.5 497.5 1042.5 505.5 C 1033.5 513.5,1033.5 513.5,1024.0 521.0 C 1010.977 531.282,999.902 542.725,994.0 552.0 C 990.5 557.5,990.5 557.5,990.5 564.0 C 990.5 571.729,991.409 574.227,994.5 575.0 L 996.5 575.5 1005.5 575.0 C 1017.294 574.345,1024.076 572.084,1046.0 561.5 C 1060.5 554.5,1060.5 554.5,1072.0 547.0 C 1078.325 542.875,1090.25 535.225,1098.5 530.0 C 1109.066 523.308,1119.855 516.214,1135.0 506.0 C 1156.5 491.5,1156.5 491.5,1160.0 495.0 C 1163.5 498.5,1163.5 498.5,1168.0 499.5 L 1172.5 500.5 1179.5 499.5 C 1194.375 497.375,1196.915 495.085,1144.0 531.5 C 1102.245 560.235,1096.837 564.01,1091.0 568.5 L 1084.5 573.5 1091.0 574.0 C 1098.166 574.551,1099.157 574.135,1125.5 559.5 C 1144.588 548.895,1161.364 542.842,1174.0 542.0 C 1182.98 541.401,1183.22 541.78,1177.5 547.5 C 1167.156 557.844,1162.349 571.462,1168.5 573.0 C 1175.605 574.776,1186.162 573.625,1196.0 570.0 C 1212.022 564.097,1231.164 554.623,1245.5 545.5 C 1258.577 537.179,1258.355 537.221,1256.0 543.5 C 1254.192 548.322,1253.854 565.208,1255.5 568.5 C 1256.862 571.224,1258.105 571.5,1269.0 571.5 C 1282.487 571.5,1303.389 564.194,1320.5 553.5 C 1324.9 550.75,1331.875 546.475,1336.0 544.0 C 1343.5 539.5,1343.5 539.5,1349.5 534.5 C 1355.5 529.5,1355.5 529.5,1356.0 530.0 C 1356.471 530.471,1356.294 530.794,1353.0 535.5 C 1347.605 543.207,1344.799 549.705,1343.5 557.5 L 1342.5 563.5 1343.5 567.5 C 1344.825 572.802,1346.512 573.5,1358.0 573.5 C 1366.476 573.5,1366.528 573.49,1376.5 570.0 C 1393.529 564.04,1416.406 552.507,1437.0 539.5 C 1450.1 531.226,1449.8 531.552,1448.5 527.0 C 1447.5 523.5,1447.5 523.5,1437.5 530.5 C 1406.537 552.174,1377.514 566.59,1362.0 568.0 C 1356.5 568.5,1356.5 568.5,1356.0 566.0 C 1354.899 560.496,1367.633 544.367,1393.5 518.5 C 1405.5 506.5,1405.5 506.5,1417.0 493.5 C 1434.783 473.397,1434.757 473.5,1422.0 473.5 C 1414.5 473.5,1414.5 473.5,1410.5 476.5 C 1406.5 479.5,1406.5 479.5,1402.5 478.0 C 1390.648 473.555,1390.26 473.5,1371.0 473.5 C 1330.749 473.5,1307.088 482.912,1280.5 509.5 L 1272.5 517.5 1267.0 523.0 C 1261.5 528.5,1261.5 528.5,1251.0 535.0 C 1245.225 538.575,1235.775 544.425,1230.0 548.0 C 1210.379 560.146,1196.126 566.5,1188.5 566.5 C 1180.546 566.5,1179.319 565.272,1182.5 560.5 L 1184.5 557.5 1190.5 552.5 L 1196.5 547.5 1198.0 545.0 C 1200.268 541.22,1200.146 539.146,1197.5 536.5 C 1195.5 534.5,1195.5 534.5,1184.5 534.5 C 1172.186 534.5,1169.174 535.164,1155.0 541.0 C 1140.553 546.949,1140.865 546.708,1196.5 509.0 C 1250.389 472.475,1247.5 474.713,1247.5 469.5 C 1247.5 466.5,1247.5 466.5,1245.0 466.5 C 1242.5 466.5,1242.5 466.5,1234.5 471.5 C 1215.625 483.297,1197.705 489.5,1182.5 489.5 C 1170.965 489.5,1169.5 488.993,1169.5 485.0 C 1169.5 481.356,1171.758 478.495,1177.0 475.5 C 1182.371 472.431,1185.268 468.889,1186.0 464.5 L 1186.5 461.5 1186.0 461.0 C 1185.725 460.725,1182.575 460.5,1179.0 460.5 C 1172.5 460.5,1172.5 460.5,1167.5 463.5 M2562.5 477.5 C 2566.163 481.163,2562.819 486.245,2550.0 496.5 C 2536.433 507.354,2522.288 513.872,2499.0 520.0 C 2481.977 524.48,2482.362 524.638,2490.5 516.5 C 2505.554 501.446,2528.495 486.217,2550.0 477.0 C 2553.93 475.316,2560.582 475.582,2562.5 477.5 M743.5 481.5 C 748.818 483.273,750.123 485.721,747.5 489.0 L 745.5 491.5 735.0 501.5 C 720.128 515.664,707.796 525.01,687.5 537.5 C 655.179 557.39,641.314 563.5,628.5 563.5 L 621.5 563.5 621.0 563.5 C 620.725 563.5,620.5 561.25,620.5 558.5 C 620.5 552.409,621.989 549.707,634.0 534.0 L 640.5 525.5 648.5 518.5 C 672.805 497.233,687.395 488.455,710.0 481.5 C 717.148 479.301,736.902 479.301,743.5 481.5 M1390.5 482.0 C 1396.286 484.893,1396.911 485.987,1394.5 489.0 L 1392.5 491.5 1382.0 501.5 C 1367.128 515.664,1354.796 525.01,1334.5 537.5 C 1302.179 557.39,1288.314 563.5,1275.5 563.5 L 1268.5 563.5 1268.0 563.5 C 1267.725 563.5,1267.5 561.25,1267.5 558.5 C 1267.5 552.409,1268.989 549.707,1281.0 534.0 L 1287.5 525.5 1295.5 518.5 C 1319.805 497.233,1334.395 488.455,1357.0 481.5 C 1365.188 478.981,1385.054 479.277,1390.5 482.0 M2641.0 504.0 C 2637.747 516.36,2631.814 531.103,2624.5 545.0 C 2614.884 563.271,2602.331 572.978,2587.0 574.0 C 2578.131 574.591,2575.223 573.653,2571.5 569.0 C 2568.241 564.926,2568.465 559.328,2572.0 556.5 L 2574.5 554.5 2576.0 552.5 C 2579.418 547.942,2577.759 542.253,2572.5 540.5 L 2569.5 539.5 2578.5 533.5 C 2583.45 530.2,2599.875 519.175,2615.0 509.0 C 2647.25 487.305,2645.295 487.681,2641.0 504.0 M2046.5 511.0 C 2064.29 514.336,2077.225 521.466,2085.5 532.5 C 2088.5 536.5,2088.5 536.5,2088.5 542.5 C 2088.5 552.684,2084.57 558.456,2072.5 566.0 C 2060.726 573.359,2048.441 575.5,2018.0 575.5 C 1991.854 575.5,1983.789 574.706,1952.0 569.0 C 1916.265 562.586,1893.419 557.662,1894.0 556.5 C 1896.263 551.974,1906.436 541.547,1914.0 536.0 C 1931.429 523.218,1960.695 512.595,1987.0 509.5 C 1998.792 508.113,2036.12 509.054,2046.5 511.0 M1661.0 520.0 C 1685.347 523.176,1709.868 528.597,1760.5 542.0 L 1777.5 546.5 1771.5 549.5 C 1741.089 564.705,1682.93 580.848,1640.0 586.0 C 1610.517 589.538,1571.803 587.934,1555.5 582.5 C 1548.13 580.043,1544.892 577.328,1540.0 569.5 C 1535.975 563.06,1536.188 553.468,1540.5 547.0 C 1550.108 532.588,1572.212 521.911,1599.5 518.5 C 1609.975 517.191,1646.243 518.075,1661.0 520.0 " stroke="none" fill="black" fill-rule="evenodd"/></svg>